<svg xmlns="http://www.w3.org/2000/svg" xmlns:xlink="http://www.w3.org/1999/xlink" viewBox="0 0 400 400" width="400" height="400">
  <svg xmlns="http://www.w3.org/2000/svg" xmlns:xlink="http://www.w3.org/1999/xlink" viewBox="0 0 400 400" width="145" height="145" x="127" y="127">
<polygon fill="#fee101" points="200,7.4 200,392.6 39.5,344.4 7.4,39.5 71.6,39.5 "/>
<polygon fill="#f6d900" points="392.6,39.5 360.5,344.4 200,392.6 200,7.4 328.4,39.5 "/>
<polygon fill="#f9f9f9" points="200,216.9 30.5,250 16,112.3 200,72.1 "/>
<polygon fill="#f9fcff" points="200,216.9 369.5,250 384,112.3 200,72.1 "/>
<path fill="#e8e8e8" d="M375.4,53.8c-0.2-0.2-0.5-0.3-0.7-0.3h-58.1L200.2,24.4c0,0,0,0-0.1,0c0,0,0,0-0.1,0c-0.1,0-0.2,0-0.3,0  c0,0,0,0,0,0L83.4,53.5H25.3c-0.3,0-0.5,0.1-0.7,0.3c-0.2,0.2-0.3,0.5-0.3,0.8l29.1,276.6c0,0.4,0.3,0.7,0.7,0.8l145.6,43.7  c0.1,0,0.2,0,0.3,0c0.1,0,0.2,0,0.3-0.1l145.5-43.7c0.4-0.1,0.7-0.4,0.7-0.8l29.1-276.6C375.7,54.3,375.6,54,375.4,53.8z   M344.7,330.3L200,373.6L55.3,330.2L26.4,55.4h57.1c0.1,0,0.2,0,0.2,0l116.2-29l116.2,29.1c0.1,0,0.2,0,0.2,0h57.1L344.7,330.3z"/>
<path fill="#e8e8e8" d="M398.1,34.5c-1.4-1.6-3.4-2.5-5.5-2.5h-63.3L201.9,0.3c-0.3-0.1-0.6-0.1-0.9-0.2c0,0,0,0,0,0  c-0.2,0-0.5-0.1-0.7-0.1c-0.1,0-0.2,0-0.3,0c-0.1,0-0.2,0-0.3,0c-0.2,0-0.5,0-0.7,0.1c0,0,0,0,0,0c-0.3,0-0.6,0.1-0.9,0.2L70.7,32.1  H7.4c-2.1,0-4.1,0.9-5.5,2.5c-1.4,1.6-2.1,3.6-1.9,5.7l32.1,304.9c0.3,3,2.4,5.5,5.2,6.3l160.5,48.2c0.2,0.1,0.5,0.1,0.7,0.2  c0.1,0,0.2,0.1,0.3,0.1c0.4,0.1,0.8,0.1,1.1,0.1c0.4,0,0.7,0,1.1-0.1c0.1,0,0.2-0.1,0.4-0.1c0.2,0,0.4-0.1,0.6-0.1l160.5-48.2  c2.9-0.9,4.9-3.3,5.2-6.3L400,40.3C400.2,38.2,399.5,36.1,398.1,34.5z M353.7,338.8L200,384.9L46.4,338.8L15.6,46.9h56  c0.6,0,1.2-0.1,1.8-0.2L200,15l126.6,31.7c0.6,0.2,1.2,0.2,1.8,0.2h56L353.7,338.8z"/>
</svg>
  <svg viewBox="0 0 200 200" width="105" height="105" style="font-size: 27px;font-family: Arial;font-weight: 700;" x="147" y="156" opacity="1">
    <defs>
      <path id="3c416d2e-a45b-45f0-8f25-5665fdb9cdeb_outer" d="M100,175c-41.4,0-75-33.6-75-75s33.6-75,75-75s75,33.6,75,75S141.4,175,100,175z" stroke-dasharray="5, 5" style="stroke: #737373;fill: none;"/>
      <path id="3c416d2e-a45b-45f0-8f25-5665fdb9cdeb_inner" d="M100,10c-49.6,0-90,40.4-90,90s40.4,90,90,90s90-40.4,90-90S149.6,10,100,10z" stroke-dasharray="5, 5" style="stroke: #737373;fill: none;"/>
    </defs>
    <text fill="#5d5d5d" text-anchor="middle" letter-spacing="0">
      <textPath xlink:href="#3c416d2e-a45b-45f0-8f25-5665fdb9cdeb_outer" startOffset="50%">Expert &amp; Timer</textPath>
    </text>
  </svg>
  <svg xmlns="http://www.w3.org/2000/svg" xmlns:xlink="http://www.w3.org/1999/xlink" version="1.1" id="&#x421;&#x43B;&#x43E;&#x439;_1" viewBox="0 0 80 80" width="23" height="23" x="188" y="177">
<path fill="#fee101" d="M54.3,25.2L45.9,24l-3.8-7.6c-0.4-0.7-1.1-1.2-1.9-1.2c-0.8,0-1.5,0.5-1.9,1.2L34.6,24l-8.4,1.2   c-0.8,0.1-1.4,0.7-1.7,1.4c-0.3,0.8,0,1.6,0.5,2.1l6.1,5.9l-1.4,8.4c-0.1,0.8,0.2,1.6,0.8,2c0.6,0.5,1.5,0.5,2.2,0.2l7.5-4l7.5,4   c0.3,0.2,0.6,0.2,1,0.2c0.4,0,0.9-0.1,1.3-0.4c0.6-0.5,1-1.3,0.8-2l-1.4-8.4l6.1-5.9c0.6-0.6,0.8-1.4,0.5-2.1S55.1,25.3,54.3,25.2z    M45.6,32.5c-0.5,0.5-0.7,1.2-0.6,1.8l0.9,5.3l-4.8-2.5c-0.3-0.2-0.6-0.2-1-0.2c-0.3,0-0.7,0.1-0.9,0.2l-4.8,2.5l0.9-5.3   c0.1-0.7-0.1-1.4-0.6-1.8l-3.9-3.8l5.3-0.8c0.7-0.1,1.3-0.5,1.6-1.1l2.4-4.8l2.4,4.8c0.3,0.6,0.9,1,1.6,1.1l5.3,0.8L45.6,32.5z"/>
	<path fill="#fee101" d="M70.4,30.4c0-2.1-0.9-4.2-2.5-5.6c-1-0.9-1.3-2.3-0.9-3.5c0.6-2,0.4-4.2-0.7-6.1c-1.1-1.8-2.8-3.2-4.9-3.6   c-1.3-0.3-2.3-1.3-2.6-2.6c-0.4-2.1-1.8-3.9-3.6-4.9s-4-1.3-6.1-0.7c-1.3,0.4-2.7,0-3.5-0.9C44.2,0.9,42.1,0,40,0s-4.2,0.9-5.6,2.5   c-0.9,1-2.3,1.3-3.5,0.9c-2-0.6-4.2-0.4-6.1,0.7C23,5.1,21.7,6.9,21.2,9c-0.3,1.3-1.3,2.3-2.6,2.6c-2.1,0.4-3.9,1.8-4.9,3.6   s-1.3,4-0.7,6.1c0.4,1.3,0,2.7-1,3.5c-1.6,1.4-2.5,3.5-2.5,5.6s0.9,4.1,2.5,5.6c1,0.9,1.3,2.3,1,3.5c-0.6,2-0.4,4.2,0.7,6.1   c1.1,1.8,2.8,3.1,4.9,3.6c1.3,0.3,2.3,1.3,2.6,2.6c0.3,1.4,1,2.7,2.1,3.7v22.4c0,0.7,0.3,1.3,0.9,1.7c0.4,0.3,0.8,0.4,1.2,0.4   c0.2,0,0.5,0,0.7-0.1l6.1-2.2c0.1,0,0.2-0.1,0.4-0.1l7.7-2.7l13.8,5c0.6,0.2,1.3,0.1,1.9-0.3s0.9-1,0.9-1.7V55.5   c1-1,1.8-2.3,2.1-3.7c0.3-1.3,1.3-2.3,2.6-2.6c2.1-0.5,3.9-1.8,4.9-3.6s1.3-4,0.7-6.1c-0.4-1.3,0-2.7,0.9-3.5   C69.5,34.5,70.4,32.5,70.4,30.4z M27.4,57.6c0.7,0.1,1.4,0.1,2.1,0v16.6L27.4,75V57.6z M39.5,70.7l-5.8,2.1V57.7   c0.3,0.2,0.5,0.4,0.8,0.6c1.4,1.6,3.5,2.5,5.6,2.5s4.2-0.9,5.6-2.5c0.3-0.3,0.7-0.6,1.1-0.8l0,15.2l-5.7-2.1   C40.5,70.5,40,70.5,39.5,70.7z M50.8,74.3l0-16.6c0.6,0,1.2,0,1.8-0.1V75L50.8,74.3z M65.1,32.9c-2.2,2-3,5.1-2.1,7.9   c0.3,0.9,0.2,1.9-0.3,2.7c-0.5,0.8-1.3,1.4-2.2,1.6c-2.9,0.6-5.1,2.9-5.8,5.8c-0.2,1-0.8,1.7-1.6,2.2c-0.8,0.5-1.8,0.6-2.7,0.3   c-0.4-0.1-0.8-0.2-1.2-0.3c-0.2,0-0.3-0.1-0.5-0.1c0,0-0.1,0-0.1,0c-2.3-0.2-4.5,0.7-6.1,2.4c-0.7,0.7-1.5,1.1-2.5,1.1   c-1,0-1.9-0.4-2.5-1.1C36,53.9,34,53,31.9,53c-0.1,0-0.2,0-0.2,0c0,0,0,0-0.1,0c-0.1,0-0.3,0-0.4,0c-0.5,0-1.1,0.1-1.6,0.3   c-0.9,0.3-1.9,0.2-2.7-0.3c-0.8-0.5-1.4-1.3-1.6-2.2c-0.6-2.9-2.9-5.1-5.8-5.8c-1-0.2-1.7-0.8-2.2-1.6c-0.5-0.8-0.6-1.8-0.3-2.7   c0.9-2.8,0.1-5.9-2.1-7.9c-0.7-0.7-1.1-1.5-1.1-2.5s0.4-1.9,1.1-2.5c2.2-2,3-5.1,2.1-7.9c-0.3-0.9-0.2-1.9,0.3-2.7   c0.5-0.8,1.3-1.4,2.2-1.6c2.9-0.6,5.1-2.9,5.8-5.8c0.2-1,0.8-1.7,1.6-2.2c0.8-0.5,1.8-0.6,2.7-0.3c2.8,0.9,5.9,0.1,7.9-2.1   C38.1,4.5,39,4.2,40,4.2c1,0,1.9,0.4,2.5,1.1c2,2.2,5.1,3,7.9,2.1c0.9-0.3,1.9-0.2,2.7,0.3c0.8,0.5,1.4,1.3,1.6,2.2   c0.6,2.9,2.9,5.1,5.8,5.8c1,0.2,1.7,0.8,2.2,1.6c0.5,0.8,0.6,1.8,0.3,2.7c-0.9,2.8-0.1,5.9,2.1,7.9c0.7,0.7,1.1,1.5,1.1,2.5   S65.8,32.2,65.1,32.9z"/>
	<path fill="#fee101" d="M61.5,23c0.5-1.6,0.3-3.3-0.5-4.8c-0.8-1.4-2.2-2.5-3.9-2.8c-1.1-0.2-1.9-1.1-2.2-2.2c-0.3-1.6-1.4-3-2.8-3.9   c-1.4-0.8-3.2-1-4.8-0.5c-1.1,0.3-2.2,0-3-0.8c-1.1-1.2-2.7-1.9-4.4-1.9s-3.3,0.7-4.4,1.9c-0.7,0.8-1.9,1.1-3,0.8   c-1.6-0.5-3.3-0.3-4.8,0.5c-1.4,0.8-2.5,2.2-2.8,3.9c-0.2,1.1-1.1,1.9-2.2,2.2c-1.6,0.4-3,1.4-3.9,2.8c-0.8,1.4-1,3.2-0.5,4.8   c0.3,1,0,2.2-0.8,2.9c-1.2,1.1-1.9,2.7-1.9,4.4s0.7,3.3,1.9,4.4c0.8,0.7,1.1,1.9,0.8,3C18,39.3,18.2,41,19,42.5   c0.8,1.4,2.2,2.5,3.9,2.8c1.1,0.2,1.9,1.1,2.2,2.2c0.3,1.6,1.4,3,2.8,3.9c1.4,0.8,3.2,1,4.8,0.5c1.1-0.3,2.2,0,3,0.8   c1.1,1.2,2.7,1.9,4.4,1.9s3.3-0.7,4.4-1.9c0.7-0.8,1.9-1.1,2.9-0.8c1.6,0.5,3.3,0.3,4.8-0.5c1.4-0.8,2.5-2.2,2.8-3.9   c0.2-1.1,1.1-1.9,2.2-2.2c1.6-0.3,3-1.4,3.9-2.8c0.8-1.4,1-3.2,0.5-4.8c-0.3-1.1,0-2.2,0.8-3c1.2-1.1,1.9-2.7,1.9-4.4   s-0.7-3.3-1.9-4.4C61.5,25.2,61.2,24.1,61.5,23z M60.2,32.5c-1.7,1.6-2.4,4-1.7,6.2c0.2,0.8,0.2,1.6-0.3,2.3   c-0.4,0.7-1.1,1.2-1.8,1.4c-2.3,0.5-4,2.3-4.5,4.5c-0.2,0.8-0.7,1.5-1.4,1.9c-0.7,0.4-1.5,0.5-2.3,0.3c-2.2-0.7-4.6-0.1-6.2,1.7   c-0.5,0.6-1.3,0.9-2.1,0.9c-0.8,0-1.5-0.3-2.1-0.9c-1.1-1.3-2.8-1.9-4.4-1.9c-0.6,0-1.2,0.1-1.8,0.3c-0.8,0.2-1.6,0.2-2.3-0.3   c-0.7-0.4-1.2-1.1-1.3-1.8c-0.5-2.3-2.3-4-4.5-4.5c-0.8-0.2-1.4-0.6-1.8-1.3c-0.4-0.7-0.5-1.5-0.3-2.3c0.7-2.2,0.1-4.6-1.7-6.2   c-0.6-0.5-0.9-1.3-0.9-2.1s0.3-1.5,0.9-2.1c1.7-1.6,2.4-4,1.7-6.2c-0.2-0.8-0.1-1.6,0.3-2.3c0.4-0.7,1.1-1.2,1.9-1.4   c2.3-0.5,4-2.3,4.5-4.5c0.2-0.8,0.7-1.5,1.4-1.9c0.7-0.4,1.5-0.5,2.3-0.3c2.2,0.7,4.6,0.1,6.2-1.7c0.5-0.6,1.3-0.9,2.1-0.9   s1.5,0.3,2.1,0.9c1.6,1.7,4,2.4,6.2,1.7c0.8-0.2,1.6-0.2,2.3,0.3c0.7,0.4,1.2,1.1,1.4,1.8c0.5,2.3,2.3,4,4.5,4.5   c0.8,0.2,1.5,0.7,1.8,1.4c0.4,0.7,0.5,1.5,0.3,2.3c-0.7,2.2,0,4.6,1.7,6.2c0.6,0.5,0.9,1.3,0.9,2.1S60.8,31.9,60.2,32.5z"/>
</svg>
</svg>
